<svg xmlns="http://www.w3.org/2000/svg" viewBox="0 0 720 320" role="img" aria-labelledby="title desc">
  <title id="title">Taquería El Patrón</title>
  <desc id="desc">Logotipo transparente de Taquería El Patrón con estilo premium mexicano.</desc>
  <defs>
    <linearGradient id="gold" x1="0%" y1="0%" x2="100%" y2="100%">
      <stop offset="0%" stop-color="#fff2b5"/>
      <stop offset="38%" stop-color="#d7ad55"/>
      <stop offset="72%" stop-color="#a87521"/>
      <stop offset="100%" stop-color="#ffe7a2"/>
    </linearGradient>
    <filter id="shadow" x="-20%" y="-20%" width="140%" height="140%">
      <feDropShadow dx="0" dy="10" stdDeviation="8" flood-color="#0b0b0b" flood-opacity=".38"/>
    </filter>
  </defs>
  <g filter="url(#shadow)">
    <path d="M360 30 608 104v74c0 55-31 92-82 119H194c-51-27-82-64-82-119v-74L360 30Z" fill="#101a34"/>
    <path d="M360 50 586 118v61c0 43-24 73-66 96H200c-42-23-66-53-66-96v-61L360 50Z" fill="none" stroke="url(#gold)" stroke-width="10"/>
    <path d="M157 118h406" stroke="#d22b33" stroke-width="8" stroke-linecap="round"/>
    <text x="360" y="111" text-anchor="middle" font-family="Georgia, 'Times New Roman', serif" font-size="48" font-weight="700" letter-spacing="9" fill="#fff4df">TAQUERIA</text>
    <text x="360" y="205" text-anchor="middle" font-family="Georgia, 'Times New Roman', serif" font-size="94" font-weight="900" letter-spacing="2" fill="url(#gold)">EL PATRON</text>
    <text x="360" y="252" text-anchor="middle" font-family="Inter, Arial, sans-serif" font-size="23" font-weight="800" letter-spacing="6" fill="#fff4df">TACOS • POZOLE • ASADA</text>
    <path d="M127 158c29 0 42-14 42-37 0 23 13 37 42 37-29 0-42 14-42 37 0-23-13-37-42-37Z" fill="#18aaa2"/>
    <path d="M509 158c29 0 42-14 42-37 0 23 13 37 42 37-29 0-42 14-42 37 0-23-13-37-42-37Z" fill="#18aaa2"/>
  </g>
</svg>
